<?xml version="1.0" encoding="utf-8"?>
<!-- Generator: Adobe Illustrator 18.0.0, SVG Export Plug-In . SVG Version: 6.00 Build 0)  -->
<!DOCTYPE svg PUBLIC "-//W3C//DTD SVG 1.1//EN" "http://www.w3.org/Graphics/SVG/1.1/DTD/svg11.dtd">
<svg version="1.1" id="Layer_1" xmlns="http://www.w3.org/2000/svg" xmlns:xlink="http://www.w3.org/1999/xlink" x="0px" y="0px"
	 viewBox="0 0 392 98.7" enable-background="new 0 0 392 98.7" xml:space="preserve">
<path fill="#FFFFFF" stroke="#231F20" stroke-width="6" stroke-miterlimit="10" d="M79.9,65.3V21.1c0-6.6-5.4-12-12-12H19.6
	c-6.6,0-12,5.4-12,12v48.3c0,6.6,5.4,12,12,12h48.1l23.9,9.9L79.9,65.3z"/>
<g>
	<path d="M124.9,72.9c0,4,0.1,7.5,0.3,10.6H119l-0.4-6.3h-0.2c-1.8,3.1-5.9,7.2-12.8,7.2c-6.1,0-13.4-3.4-13.4-17V44.7h7v21.4
		c0,7.4,2.2,12.3,8.6,12.3c4.7,0,8-3.3,9.3-6.4c0.4-1,0.6-2.3,0.6-3.6V44.7h7V72.9z"/>
	<path d="M167.9,63.8c0,14.3-9.9,20.6-19.3,20.6c-10.5,0-18.6-7.7-18.6-19.9c0-13,8.5-20.6,19.2-20.6
		C160.4,43.9,167.9,51.9,167.9,63.8z M137.2,64.2c0,8.5,4.9,14.9,11.8,14.9c6.7,0,11.8-6.3,11.8-15c0-6.6-3.3-14.9-11.6-14.9
		S137.2,56.8,137.2,64.2z"/>
	<path d="M181.6,33.6v11.1h10.1v5.4h-10.1V71c0,4.8,1.4,7.5,5.3,7.5c1.8,0,3.2-0.2,4.1-0.5l0.3,5.3c-1.4,0.6-3.5,1-6.2,1
		c-3.3,0-5.9-1-7.6-3c-2-2.1-2.7-5.5-2.7-10.1V50.1h-6v-5.4h6v-9.3L181.6,33.6z"/>
	<path d="M199.4,65.4c0.2,9.5,6.2,13.4,13.3,13.4c5,0,8.1-0.9,10.7-2l1.2,5c-2.5,1.1-6.7,2.4-12.9,2.4c-11.9,0-19-7.8-19-19.5
		c0-11.7,6.9-20.9,18.2-20.9c12.6,0,16,11.1,16,18.2c0,1.4-0.2,2.6-0.2,3.3H199.4z M220,60.3c0.1-4.5-1.8-11.4-9.8-11.4
		c-7.1,0-10.2,6.6-10.8,11.4H220z"/>
	<path d="M232.1,30.3c3-0.6,7.8-1.1,12.7-1.1c7,0,11.4,1.2,14.8,3.9c2.8,2.1,4.5,5.3,4.5,9.5c0,5.2-3.4,9.8-9.1,11.8v0.2
		c5.1,1.3,11.1,5.5,11.1,13.5c0,4.6-1.8,8.2-4.6,10.8c-3.8,3.4-9.8,5-18.6,5c-4.8,0-8.5-0.3-10.8-0.6V30.3z M239.1,52.3h6.3
		c7.4,0,11.7-3.8,11.7-9c0-6.3-4.8-8.8-11.8-8.8c-3.2,0-5,0.2-6.2,0.5V52.3z M239.1,78.2c1.4,0.2,3.4,0.3,5.8,0.3
		c7.2,0,13.8-2.6,13.8-10.5c0-7.4-6.3-10.4-13.9-10.4h-5.8V78.2z"/>
	<path d="M306.9,63.8c0,14.3-9.9,20.6-19.3,20.6c-10.5,0-18.6-7.7-18.6-19.9c0-13,8.5-20.6,19.2-20.6
		C299.4,43.9,306.9,51.9,306.9,63.8z M276.2,64.2c0,8.5,4.9,14.9,11.8,14.9c6.7,0,11.8-6.3,11.8-15c0-6.6-3.3-14.9-11.6-14.9
		S276.2,56.8,276.2,64.2z"/>
	<path d="M347.1,63.8c0,14.3-9.9,20.6-19.3,20.6c-10.5,0-18.6-7.7-18.6-19.9c0-13,8.5-20.6,19.2-20.6
		C339.6,43.9,347.1,51.9,347.1,63.8z M316.4,64.2c0,8.5,4.9,14.9,11.8,14.9c6.7,0,11.8-6.3,11.8-15c0-6.6-3.3-14.9-11.6-14.9
		C320,49.1,316.4,56.8,316.4,64.2z"/>
	<path d="M359.3,62.5h0.2c1-1.4,2.3-3,3.4-4.4l11.4-13.4h8.5l-15,15.9l17,22.8h-8.6l-13.4-18.6l-3.6,4v14.6h-7V26.7h7V62.5z"/>
</g>
<g>
	<path d="M45,35.9c-1.8,6.7-5.3,15.3-7.4,19l-4.5,0.6c1.7-4.7,3.8-13,4.7-18.8L45,35.9z M56.8,35.9c-1.8,6.7-5.3,15.3-7.4,19
		l-4.5,0.6c1.8-4.7,3.8-13,4.7-18.8L56.8,35.9z"/>
</g>
</svg>
